# xmcd
#
# Track frame offsets: 
#        150
#        18721
#        35052
#        49714
#        65389
#        85939
#        113839
#        138101
#        158613
#        179594
#        203837
#        222905
#        248386
#        265992
#
# Disc length: 3911 seconds
#
# Revision: 0
# Processed by: cddbd v1.5.2PL0 Copyright (c) Steve Scherf et al.
# Submitted via: ExactAudioCopy v0.99pb5
#
DISCID=c00f450e
DTITLE=Johnny Childs - Groove 
DYEAR=2011
DGENRE=Blues
TTITLE0=Black Bag Blues
TTITLE1=Walk The Floor
TTITLE2=Don't Quit The Man
TTITLE3=Junkman's Son
TTITLE4=Back In The Middle
TTITLE5=Leaving In The Morning
TTITLE6=Find My Baby
TTITLE7=Thumbs Boogie
TTITLE8=I'm A Ram
TTITLE9=Don't Leave Me
TTITLE10=Roll Away The Stone
TTITLE11=Fairwell My Love
TTITLE12=Chromatic Boogie
TTITLE13=See The Light
EXTD=
EXTT0=
EXTT1=
EXTT2=
EXTT3=
EXTT4=
EXTT5=
EXTT6=
EXTT7=
EXTT8=
EXTT9=
EXTT10=
EXTT11=
EXTT12=
EXTT13=
PLAYORDER=
